<svg xmlns="http://www.w3.org/2000/svg" viewBox="0 0 64 64"><path fill="#2c4355" d="M49.5 49.5h-35a.5.5 0 0 1-.5-.5V15a.5.5 0 0 1 .5-.5h35a.5.5 0 0 1 .5.5v34a.5.5 0 0 1-.5.5zm-34.5-1h34v-33H15v33z"/><path fill="#2c4355" d="M49.5 43.5h-35a.5.5 0 0 1-.5-.5V21a.5.5 0 0 1 .5-.5h35a.5.5 0 0 1 .5.5v22a.5.5 0 0 1-.5.5zm-34.5-1h34v-21H15v21z"/><path fill="#2c4355" d="M24.5 21.5h-5a.5.5 0 0 1-.5-.5v-6a.5.5 0 0 1 .5-.5h5a.5.5 0 0 1 .5.5v6a.5.5 0 0 1-.5.5zm-4.5-1h4v-5h-4v5zM24.5 49.5h-5a.5.5 0 0 1-.5-.5v-6a.5.5 0 0 1 .5-.5h5a.5.5 0 0 1 .5.5v6a.5.5 0 0 1-.5.5zm-4.5-1h4v-5h-4v5z"/><path fill="#2c4355" d="M29.5 49.5h-5a.5.5 0 0 1-.5-.5v-6a.5.5 0 0 1 .5-.5h5a.5.5 0 0 1 .5.5v6a.5.5 0 0 1-.5.5zm-4.5-1h4v-5h-4v5z"/><path fill="#2c4355" d="M34.5 49.5h-5a.5.5 0 0 1-.5-.5v-6a.5.5 0 0 1 .5-.5h5a.5.5 0 0 1 .5.5v6a.5.5 0 0 1-.5.5zm-4.5-1h4v-5h-4v5z"/><path fill="#2c4355" d="M39.5 49.5h-5a.5.5 0 0 1-.5-.5v-6a.5.5 0 0 1 .5-.5h5a.5.5 0 0 1 .5.5v6a.5.5 0 0 1-.5.5zm-4.5-1h4v-5h-4v5z"/><path fill="#2c4355" d="M44.5 49.5h-5a.5.5 0 0 1-.5-.5v-6a.5.5 0 0 1 .5-.5h5a.5.5 0 0 1 .5.5v6a.5.5 0 0 1-.5.5zm-4.5-1h4v-5h-4v5zM29.5 21.5h-5a.5.5 0 0 1-.5-.5v-6a.5.5 0 0 1 .5-.5h5a.5.5 0 0 1 .5.5v6a.5.5 0 0 1-.5.5zm-4.5-1h4v-5h-4v5z"/><path fill="#2c4355" d="M34.5 21.5h-5a.5.5 0 0 1-.5-.5v-6a.5.5 0 0 1 .5-.5h5a.5.5 0 0 1 .5.5v6a.5.5 0 0 1-.5.5zm-4.5-1h4v-5h-4v5z"/><path fill="#2c4355" d="M39.5 21.5h-5a.5.5 0 0 1-.5-.5v-6a.5.5 0 0 1 .5-.5h5a.5.5 0 0 1 .5.5v6a.5.5 0 0 1-.5.5zm-4.5-1h4v-5h-4v5z"/><path fill="#2c4355" d="M44.5 21.5h-5a.5.5 0 0 1-.5-.5v-6a.5.5 0 0 1 .5-.5h5a.5.5 0 0 1 .5.5v6a.5.5 0 0 1-.5.5zm-4.5-1h4v-5h-4v5z"/><path fill="#2c4355" d="M49.5 21.5h-5a.5.5 0 0 1-.5-.5v-6a.5.5 0 0 1 .5-.5h5a.5.5 0 0 1 .5.5v6a.5.5 0 0 1-.5.5zm-4.5-1h4v-5h-4v5z"/><path fill="#f15743" d="M33.5 36.484a.5.5 0 0 0 0-1h-3a.5.5 0 0 0-.5.5v2a.5.5 0 0 0 .5.5H33v1h-2.5a.5.5 0 0 0 0 1h3a.5.5 0 0 0 .5-.5v-2a.5.5 0 0 0-.5-.5H31v-1h2.5zM38.5 35.484h-3a.5.5 0 0 0 0 1h1v3.5a.5.5 0 0 0 1 0v-3.5h1a.5.5 0 0 0 0-1zM28.5 36.516a.5.5 0 0 0 0-1h-3a.5.5 0 0 0-.5.5v4a.5.5 0 0 0 .5.5h3a.5.5 0 0 0 .5-.5v-2a.5.5 0 0 0-.5-.5h-1a.5.5 0 0 0 0 1h.5v1h-2v-3h2.5zM30.758 30.813a.497.497 0 0 0 .507-.013l3-1.875a.5.5 0 0 0 0-.848l-3-1.875a.501.501 0 0 0-.765.424v3.75c0 .181.099.348.258.437zm.742-3.286l1.557.973-1.557.973v-1.946z"/><path fill="#f15743" d="M32 33.539c2.757 0 5-2.243 5-5s-2.243-5-5-5-5 2.243-5 5 2.243 5 5 5zm0-9c2.206 0 4 1.794 4 4s-1.794 4-4 4-4-1.794-4-4 1.794-4 4-4z"/></svg>